<svg width="28" height="24" viewBox="0 0 28 24" fill="none" xmlns="http://www.w3.org/2000/svg">
<path d="M5.53885 24L0.922852 11.2307L7.28285 7.436V0H9.94952V7.436L16.3082 11.2307L11.6922 24H5.53885ZM20.0522 24C19.8629 24 19.7042 23.936 19.5762 23.808C19.4482 23.68 19.3846 23.5213 19.3855 23.332C19.3864 23.1427 19.45 22.9844 19.5762 22.8573C19.7024 22.7302 19.8611 22.6667 20.0522 22.6667H24.7189V18.9733H20.0522C19.8629 18.9733 19.7042 18.9098 19.5762 18.7827C19.4491 18.6547 19.3855 18.496 19.3855 18.3067C19.3855 18.1173 19.4491 17.9591 19.5762 17.832C19.7033 17.7049 19.862 17.6413 20.0522 17.6413H24.7189V13.948H20.0522C19.8629 13.948 19.7042 13.8844 19.5762 13.7573C19.4491 13.6293 19.3855 13.4707 19.3855 13.2813C19.3855 13.092 19.4491 12.9338 19.5762 12.8067C19.7033 12.6796 19.862 12.616 20.0522 12.616H24.7189V8.92267H20.0522C19.8629 8.92267 19.7042 8.85867 19.5762 8.73067C19.4491 8.60356 19.3855 8.44533 19.3855 8.256C19.3855 8.06667 19.4491 7.90845 19.5762 7.78133C19.7033 7.65422 19.862 7.59022 20.0522 7.58933H24.7189V3.89733H20.0522C19.8629 3.89733 19.7042 3.83333 19.5762 3.70533C19.4491 3.57733 19.3855 3.41911 19.3855 3.23067C19.3855 3.04133 19.4491 2.88267 19.5762 2.75467C19.7033 2.62667 19.862 2.56311 20.0522 2.564H24.9229C25.5362 2.564 26.0486 2.76978 26.4602 3.18133C26.8717 3.59289 27.0775 4.10533 27.0775 4.71867V21.8467C27.0775 22.46 26.8717 22.9724 26.4602 23.384C26.0486 23.7956 25.5362 24.0009 24.9229 24H20.0522ZM6.48019 22.6667H10.7469L14.6802 11.8L9.77752 8.872H7.45085L2.54952 11.8L6.48019 22.6667Z" fill="black" fill-opacity="0.8"/>
</svg>
