<svg width="32" height="32" viewBox="0 0 32 32" fill="none" xmlns="http://www.w3.org/2000/svg">
<g clip-path="url(#clip0_2432_1050)">
<path d="M22.2042 5.51345L18.7463 3.16697V1.44186C18.7463 0.646828 18.0994 0 17.3044 0H14.6955C13.9005 0 13.2536 0.646828 13.2536 1.44186V3.16703L9.79572 5.51345C9.24234 5.88897 8.91193 6.51248 8.91193 7.18124V29.9845C8.91193 31.0958 9.81606 32 10.9274 32H21.0725C22.1838 32 23.088 31.0959 23.088 29.9845V7.18124C23.088 6.51248 22.7576 5.88897 22.2042 5.51345ZM14.633 1.44186C14.633 1.40738 14.6611 1.37931 14.6956 1.37931H17.3045C17.339 1.37931 17.367 1.40738 17.367 1.44186V2.89448H14.6331L14.633 1.44186ZM10.5702 6.65483L14.079 4.27386H17.9208L21.4296 6.65483C21.6043 6.77338 21.7085 6.97014 21.7085 7.18124V8.68352H10.2912V7.18124C10.2912 6.97014 10.3955 6.77331 10.5702 6.65483ZM10.2912 14.6248V13.0334H21.7086V14.6248H10.2912ZM21.7086 16.0041V26.8121H10.2912V16.0041H21.7086ZM10.2912 11.6541V10.0628H21.7086V11.6541H10.2912ZM21.0725 30.6207H10.9274C10.5766 30.6207 10.2912 30.3353 10.2912 29.9845V28.1914H21.7085V29.9845C21.7086 30.3353 21.4232 30.6207 21.0725 30.6207Z" fill="black"/>
<path d="M16.1298 23.7295C16.5107 23.7295 16.8195 23.4207 16.8195 23.0398V19.8554C16.8195 19.4745 16.5107 19.1658 16.1298 19.1658C15.7489 19.1658 15.4402 19.4745 15.4402 19.8554V23.0398C15.4402 23.4207 15.7489 23.7295 16.1298 23.7295Z" fill="black"/>
<path d="M13.4321 23.7295C14.3067 23.7295 15.0183 23.0179 15.0183 22.1433V20.752C15.0183 19.8774 14.3067 19.1658 13.4321 19.1658C12.5575 19.1658 11.8459 19.8774 11.8459 20.752V22.1433C11.8459 23.0179 12.5575 23.7295 13.4321 23.7295ZM13.2252 20.752C13.2252 20.6379 13.318 20.5451 13.4321 20.5451C13.5462 20.5451 13.639 20.6379 13.639 20.752V22.1433C13.639 22.2574 13.5462 22.3502 13.4321 22.3502C13.318 22.3502 13.2252 22.2574 13.2252 22.1433V20.752Z" fill="black"/>
<path d="M18.1907 23.7295H19.4644C19.8453 23.7295 20.1541 23.4207 20.1541 23.0398C20.1541 22.6589 19.8453 22.3502 19.4644 22.3502H18.8803V19.8554C18.8803 19.4745 18.5716 19.1658 18.1907 19.1658C17.8098 19.1658 17.501 19.4745 17.501 19.8554V23.0398C17.501 23.4207 17.8098 23.7295 18.1907 23.7295Z" fill="black"/>
</g>
<defs>
<clipPath id="clip0_2432_1050">
<rect width="32" height="32" fill="white"/>
</clipPath>
</defs>
</svg>
