<svg width="32" height="32" viewBox="0 0 32 32" fill="none" xmlns="http://www.w3.org/2000/svg">
<path d="M17.7842 5.43732C20.8269 2.57598 24.2736 2.29732 26.9336 2.97598C29.3629 3.59732 29.9256 6.39332 28.7256 8.49065C26.7469 11.948 24.5029 15.0227 20.4096 19.06C16.4242 22.9893 12.2656 26.2746 8.28291 28.768C6.10557 30.132 3.20291 28.9146 2.84957 26.3346C2.45891 23.4893 2.59491 20.4107 4.25891 18.7693C5.08957 18.7867 6.95757 19.1627 8.73891 20.4333M17.7842 5.43732C11.7642 4.00665 9.21224 8.33998 9.12824 10.9266M17.7842 5.43732C19.0722 5.74398 20.5202 6.31332 22.1362 7.22132M4.25891 18.7707C3.14691 13.784 7.05357 7.90932 16.2216 13.0586" stroke="black" stroke-opacity="0.8" stroke-width="2" stroke-linecap="round" stroke-linejoin="round"/>
</svg>
