<svg width="30" height="30" viewBox="0 0 30 30" fill="none" xmlns="http://www.w3.org/2000/svg">
<mask id="path-1-inside-1_2432_1047" fill="white">
<path d="M28.875 0.483765C28.1688 0.501265 27.4063 0.57564 26.6938 0.71314C25.6938 0.90564 24.7938 1.23376 24.325 1.58064C24.2813 1.71876 24.2688 1.90814 24.275 2.03626C24.275 2.16751 24.2938 2.31001 24.3188 2.45376C25.15 1.83439 26.1688 1.47939 27.2 1.14376C26.3063 1.77314 25.5375 2.43439 24.8125 3.11189C25.3188 3.33501 25.9188 3.33814 26.3063 3.06376H26.3125C27.15 2.46126 28.2688 1.45376 28.875 0.48564V0.483765ZM10.2563 0.70814C10.0875 0.70814 9.90627 0.72689 9.71877 0.768765C9.59377 1.38064 9.66877 1.93751 9.90002 2.38064C9.33752 2.15939 8.66252 2.19626 7.97502 2.77189C8.39377 4.19876 9.65627 4.83439 10.9563 4.19001C10.9938 4.78001 11.0125 5.37501 11.0125 5.96876C10.6063 5.52501 9.93752 5.12189 9.24377 5.14064C8.75627 5.15939 8.25002 5.38126 7.80627 5.94376C8.50627 7.25626 9.86877 7.61876 11.0063 6.73126C10.9938 7.37501 10.9625 8.01876 10.9125 8.66876C10.5313 8.14376 9.85002 7.64376 9.09377 7.65001C8.75627 7.65626 8.40627 7.76251 8.05627 8.01251C9.05627 8.29376 9.96877 8.69376 10.7875 9.23126C11.0938 9.42501 11.25 9.72501 11.3375 10.0188C11.4188 10.3125 11.4375 10.6188 11.4313 10.9313C11.4063 11.5688 11.2563 12.2375 11.0313 12.8063L10.95 12.9938L10.7688 13.0875C10.6438 13.1563 10.5 13.225 10.3625 13.2938C10.2313 14.0938 10.0875 14.9 9.93127 15.7125C9.00627 14.5875 8.07502 14.175 7.15627 14.1688C4.80689 14.1438 2.50877 16.7438 0.36377 16.7875C3.26814 16.9938 7.78752 14.0313 9.36252 17.5125C10.5313 18.3813 11.7313 19.0875 12.9563 19.625C13.0563 19.0375 13.2188 18.4188 13.4438 17.8688C13.5875 17.5188 13.75 17.1938 13.9563 16.9188C14.1625 16.6438 14.4125 16.3938 14.7938 16.3C14.9 16.2688 15.0125 16.2438 15.1188 16.2188C14.7813 15.5625 14.825 14.6813 15.225 13.9438C15.6313 13.1875 16.3688 12.6625 17.125 12.6063C17.9 11.425 18.7125 10.275 19.5688 9.14376C20.2313 10.55 21.6938 10.8063 22.9 9.82501C22.5938 8.69376 21.775 8.33751 20.9938 8.35626C20.6438 8.36251 20.3 8.45001 20.0063 8.57501C21.2375 6.98126 22.5563 5.45002 23.9688 3.96501C23.4563 3.73877 23.4188 3.56814 23.2875 3.05189C21.85 4.55126 20.5063 6.11251 19.25 7.71876C19.2188 8.71251 18.6563 9.60626 17.7063 9.79376H17.6938C17.0875 10.6438 16.5 11.5 15.9375 12.375C16.0813 11.4438 16.225 10.4875 16.4 9.53751C15.9625 9.26252 15.6125 8.80001 15.4188 8.26251C14.825 10.1688 14.4 12.1938 13.85 13.9438C13.775 13.9313 13.6938 13.925 13.6188 13.925C12.6313 13.9188 11.7625 14.775 11.5375 15.4188C12.2938 16.0688 13.125 16.1938 13.8063 15.8938C13.55 16.35 13.2875 16.8125 13.0375 17.275C12.8125 17.175 12.5813 17.125 12.3625 17.125C11.65 17.1188 11 17.5688 10.6063 18.0563C11.0375 16.0063 11.425 13.9563 11.7063 11.9125C12.8563 12.4938 14.05 11.9813 14.5813 10.6875C14.1313 10.2188 13.6563 10.0313 13.2063 10.025C12.7125 10.0188 12.2438 10.2375 11.875 10.5313C11.9563 9.82501 12.0188 9.11876 12.0625 8.41252C13.2375 9.56877 14.7563 9.25626 15.5063 7.84376C15.0625 7.28126 14.5563 7.06251 14.0688 7.04376C13.2188 7.01876 12.4188 7.62501 12.075 8.17501C12.1125 7.50627 12.1375 6.84376 12.1375 6.18126C13.4188 6.78126 14.65 6.14376 15.0625 4.73126C14.6125 4.35439 14.1688 4.20877 13.7625 4.21501C13.0875 4.22501 12.5 4.64939 12.125 5.13439C12.1125 4.69376 12.0875 4.25314 12.0563 3.81376C13.5188 4.29564 14.7 3.42251 14.8375 1.88814C13.6 1.20501 12.65 1.84189 12.1563 2.62814C12.0438 1.74751 11.4688 0.70939 10.2563 0.70814ZM21.3813 1.57814C19.0813 1.94189 17.65 3.34564 16.65 5.20314L16.8 5.16564C17.1313 5.10314 17.45 5.13439 17.7375 5.24064C18.5 3.75251 19.625 2.46626 21.3813 1.57814ZM29.6375 5.56251C26.675 9.80626 22.7125 11.6125 18.8188 13.575C19.15 14.2313 19.1063 15.0938 18.7125 15.825V15.8313C22.825 13.2813 27.0125 10.8625 29.6375 5.56251ZM24.0313 5.83751C23.0438 5.82502 22.175 6.69377 21.95 7.33126C23.2563 8.45626 24.7813 8.01252 25.4063 6.50001C24.9563 6.03126 24.4813 5.84376 24.0313 5.83751ZM17.0938 6.26251C17.0688 6.26876 17.0438 6.26876 17.0188 6.27501C16.625 6.35001 16.2688 6.90626 16.4125 7.64376C16.5563 8.38127 17.1 8.76876 17.4875 8.68751C17.8813 8.61251 18.2375 8.05627 18.0938 7.31877C17.9563 6.62502 17.4813 6.24376 17.0938 6.26251ZM4.31127 8.65001C4.21814 8.65001 4.11877 8.65626 4.02439 8.65626C4.61127 10.2375 5.24252 11.5875 6.57502 12.4H6.58127C7.46877 12.9625 8.53127 12.8063 9.45002 12.4563L6.80002 10.2625L10.1063 12.0125C10.2 11.4563 10.525 10.7125 10.1875 10.1813H10.1813V10.175C8.65002 9.18126 6.72502 8.66876 4.31127 8.65001ZM17.2438 13.7313C16.9 13.7438 16.4813 13.9813 16.2125 14.475C15.8563 15.1375 16.0313 15.7813 16.3813 15.9688C16.9188 16.2 17.5188 15.6563 17.7188 15.2938C18.075 14.6313 17.9 13.9938 17.55 13.8C17.4625 13.75 17.3563 13.7313 17.2438 13.7313ZM17.05 17.125C16.9563 17.125 16.8563 17.125 16.7625 17.1313C16.1875 17.1563 15.625 17.2438 15.075 17.3875H15.0688C15.075 17.3875 14.975 17.4313 14.8563 17.5938C14.7375 17.7563 14.6 18 14.4875 18.2938C14.3188 18.7 14.1875 19.1875 14.1 19.6438L18.1 19.0125L14.8563 20.3C15.1938 20.8 15.2875 21.0063 15.3688 21.375C15.8875 21.7063 16.4375 21.8563 17.1313 21.6875C18.8563 21.2813 20.2125 19.875 21.6313 18.2188C20.0063 17.475 18.4938 17.1125 17.05 17.125ZM8.47502 18.2438L7.91252 19.675C9.95627 20.575 11.7 21.6188 13.3688 22.6688L14.15 21.2563C12.1563 20.6438 10.275 19.6125 8.47502 18.2438ZM7.68752 20.8063C6.38127 22.5125 4.81189 23.9938 3.01814 24.8625L3.51064 25.875C5.59377 24.8625 7.31877 23.1813 8.73127 21.3C8.39377 21.1313 8.04377 20.9625 7.68752 20.8063ZM8.95627 21.4125C7.48127 24.0438 6.06252 25.9188 4.55939 28.6688L5.55002 29.2063C7.01252 26.525 8.42502 24.6438 9.95627 21.9375C9.63127 21.7625 9.29377 21.5875 8.95627 21.4125ZM10.5938 22.3C9.05627 24.6563 7.95627 26.5813 6.86877 29.0688L7.89377 29.5188C8.96252 27.0813 10.0313 25.2188 11.5563 22.8688C11.2375 22.675 10.9188 22.4813 10.5938 22.3ZM12.0313 23.1563C11.0688 24.7813 10.9625 26.7188 10.7938 28.1938L11.9063 28.325C12.0875 26.8125 12.225 25.0625 12.9875 23.7563L12.0313 23.1563Z"/>
</mask>
<path d="M28.875 0.483765C28.1688 0.501265 27.4063 0.57564 26.6938 0.71314C25.6938 0.90564 24.7938 1.23376 24.325 1.58064C24.2813 1.71876 24.2688 1.90814 24.275 2.03626C24.275 2.16751 24.2938 2.31001 24.3188 2.45376C25.15 1.83439 26.1688 1.47939 27.2 1.14376C26.3063 1.77314 25.5375 2.43439 24.8125 3.11189C25.3188 3.33501 25.9188 3.33814 26.3063 3.06376H26.3125C27.15 2.46126 28.2688 1.45376 28.875 0.48564V0.483765ZM10.2563 0.70814C10.0875 0.70814 9.90627 0.72689 9.71877 0.768765C9.59377 1.38064 9.66877 1.93751 9.90002 2.38064C9.33752 2.15939 8.66252 2.19626 7.97502 2.77189C8.39377 4.19876 9.65627 4.83439 10.9563 4.19001C10.9938 4.78001 11.0125 5.37501 11.0125 5.96876C10.6063 5.52501 9.93752 5.12189 9.24377 5.14064C8.75627 5.15939 8.25002 5.38126 7.80627 5.94376C8.50627 7.25626 9.86877 7.61876 11.0063 6.73126C10.9938 7.37501 10.9625 8.01876 10.9125 8.66876C10.5313 8.14376 9.85002 7.64376 9.09377 7.65001C8.75627 7.65626 8.40627 7.76251 8.05627 8.01251C9.05627 8.29376 9.96877 8.69376 10.7875 9.23126C11.0938 9.42501 11.25 9.72501 11.3375 10.0188C11.4188 10.3125 11.4375 10.6188 11.4313 10.9313C11.4063 11.5688 11.2563 12.2375 11.0313 12.8063L10.95 12.9938L10.7688 13.0875C10.6438 13.1563 10.5 13.225 10.3625 13.2938C10.2313 14.0938 10.0875 14.9 9.93127 15.7125C9.00627 14.5875 8.07502 14.175 7.15627 14.1688C4.80689 14.1438 2.50877 16.7438 0.36377 16.7875C3.26814 16.9938 7.78752 14.0313 9.36252 17.5125C10.5313 18.3813 11.7313 19.0875 12.9563 19.625C13.0563 19.0375 13.2188 18.4188 13.4438 17.8688C13.5875 17.5188 13.75 17.1938 13.9563 16.9188C14.1625 16.6438 14.4125 16.3938 14.7938 16.3C14.9 16.2688 15.0125 16.2438 15.1188 16.2188C14.7813 15.5625 14.825 14.6813 15.225 13.9438C15.6313 13.1875 16.3688 12.6625 17.125 12.6063C17.9 11.425 18.7125 10.275 19.5688 9.14376C20.2313 10.55 21.6938 10.8063 22.9 9.82501C22.5938 8.69376 21.775 8.33751 20.9938 8.35626C20.6438 8.36251 20.3 8.45001 20.0063 8.57501C21.2375 6.98126 22.5563 5.45002 23.9688 3.96501C23.4563 3.73877 23.4188 3.56814 23.2875 3.05189C21.85 4.55126 20.5063 6.11251 19.25 7.71876C19.2188 8.71251 18.6563 9.60626 17.7063 9.79376H17.6938C17.0875 10.6438 16.5 11.5 15.9375 12.375C16.0813 11.4438 16.225 10.4875 16.4 9.53751C15.9625 9.26252 15.6125 8.80001 15.4188 8.26251C14.825 10.1688 14.4 12.1938 13.85 13.9438C13.775 13.9313 13.6938 13.925 13.6188 13.925C12.6313 13.9188 11.7625 14.775 11.5375 15.4188C12.2938 16.0688 13.125 16.1938 13.8063 15.8938C13.55 16.35 13.2875 16.8125 13.0375 17.275C12.8125 17.175 12.5813 17.125 12.3625 17.125C11.65 17.1188 11 17.5688 10.6063 18.0563C11.0375 16.0063 11.425 13.9563 11.7063 11.9125C12.8563 12.4938 14.05 11.9813 14.5813 10.6875C14.1313 10.2188 13.6563 10.0313 13.2063 10.025C12.7125 10.0188 12.2438 10.2375 11.875 10.5313C11.9563 9.82501 12.0188 9.11876 12.0625 8.41252C13.2375 9.56877 14.7563 9.25626 15.5063 7.84376C15.0625 7.28126 14.5563 7.06251 14.0688 7.04376C13.2188 7.01876 12.4188 7.62501 12.075 8.17501C12.1125 7.50627 12.1375 6.84376 12.1375 6.18126C13.4188 6.78126 14.65 6.14376 15.0625 4.73126C14.6125 4.35439 14.1688 4.20877 13.7625 4.21501C13.0875 4.22501 12.5 4.64939 12.125 5.13439C12.1125 4.69376 12.0875 4.25314 12.0563 3.81376C13.5188 4.29564 14.7 3.42251 14.8375 1.88814C13.6 1.20501 12.65 1.84189 12.1563 2.62814C12.0438 1.74751 11.4688 0.70939 10.2563 0.70814ZM21.3813 1.57814C19.0813 1.94189 17.65 3.34564 16.65 5.20314L16.8 5.16564C17.1313 5.10314 17.45 5.13439 17.7375 5.24064C18.5 3.75251 19.625 2.46626 21.3813 1.57814ZM29.6375 5.56251C26.675 9.80626 22.7125 11.6125 18.8188 13.575C19.15 14.2313 19.1063 15.0938 18.7125 15.825V15.8313C22.825 13.2813 27.0125 10.8625 29.6375 5.56251ZM24.0313 5.83751C23.0438 5.82502 22.175 6.69377 21.95 7.33126C23.2563 8.45626 24.7813 8.01252 25.4063 6.50001C24.9563 6.03126 24.4813 5.84376 24.0313 5.83751ZM17.0938 6.26251C17.0688 6.26876 17.0438 6.26876 17.0188 6.27501C16.625 6.35001 16.2688 6.90626 16.4125 7.64376C16.5563 8.38127 17.1 8.76876 17.4875 8.68751C17.8813 8.61251 18.2375 8.05627 18.0938 7.31877C17.9563 6.62502 17.4813 6.24376 17.0938 6.26251ZM4.31127 8.65001C4.21814 8.65001 4.11877 8.65626 4.02439 8.65626C4.61127 10.2375 5.24252 11.5875 6.57502 12.4H6.58127C7.46877 12.9625 8.53127 12.8063 9.45002 12.4563L6.80002 10.2625L10.1063 12.0125C10.2 11.4563 10.525 10.7125 10.1875 10.1813H10.1813V10.175C8.65002 9.18126 6.72502 8.66876 4.31127 8.65001ZM17.2438 13.7313C16.9 13.7438 16.4813 13.9813 16.2125 14.475C15.8563 15.1375 16.0313 15.7813 16.3813 15.9688C16.9188 16.2 17.5188 15.6563 17.7188 15.2938C18.075 14.6313 17.9 13.9938 17.55 13.8C17.4625 13.75 17.3563 13.7313 17.2438 13.7313ZM17.05 17.125C16.9563 17.125 16.8563 17.125 16.7625 17.1313C16.1875 17.1563 15.625 17.2438 15.075 17.3875H15.0688C15.075 17.3875 14.975 17.4313 14.8563 17.5938C14.7375 17.7563 14.6 18 14.4875 18.2938C14.3188 18.7 14.1875 19.1875 14.1 19.6438L18.1 19.0125L14.8563 20.3C15.1938 20.8 15.2875 21.0063 15.3688 21.375C15.8875 21.7063 16.4375 21.8563 17.1313 21.6875C18.8563 21.2813 20.2125 19.875 21.6313 18.2188C20.0063 17.475 18.4938 17.1125 17.05 17.125ZM8.47502 18.2438L7.91252 19.675C9.95627 20.575 11.7 21.6188 13.3688 22.6688L14.15 21.2563C12.1563 20.6438 10.275 19.6125 8.47502 18.2438ZM7.68752 20.8063C6.38127 22.5125 4.81189 23.9938 3.01814 24.8625L3.51064 25.875C5.59377 24.8625 7.31877 23.1813 8.73127 21.3C8.39377 21.1313 8.04377 20.9625 7.68752 20.8063ZM8.95627 21.4125C7.48127 24.0438 6.06252 25.9188 4.55939 28.6688L5.55002 29.2063C7.01252 26.525 8.42502 24.6438 9.95627 21.9375C9.63127 21.7625 9.29377 21.5875 8.95627 21.4125ZM10.5938 22.3C9.05627 24.6563 7.95627 26.5813 6.86877 29.0688L7.89377 29.5188C8.96252 27.0813 10.0313 25.2188 11.5563 22.8688C11.2375 22.675 10.9188 22.4813 10.5938 22.3ZM12.0313 23.1563C11.0688 24.7813 10.9625 26.7188 10.7938 28.1938L11.9063 28.325C12.0875 26.8125 12.225 25.0625 12.9875 23.7563L12.0313 23.1563Z" stroke="black" stroke-width="1.6" mask="url(#path-1-inside-1_2432_1047)"/>
</svg>
