<svg width="20" height="24" viewBox="0 0 20 24" fill="none" xmlns="http://www.w3.org/2000/svg">
<path d="M2.82117 24C2.22384 24 1.71539 23.7902 1.29584 23.3707C0.876282 22.9511 0.666504 22.4431 0.666504 21.8467V2.15333C0.666504 1.55778 0.876282 1.04978 1.29584 0.629333C1.71539 0.209778 2.22384 0 2.82117 0H17.1798C17.7754 0 18.2834 0.209778 18.7038 0.629333C19.1234 1.04889 19.3332 1.55733 19.3332 2.15467V21.8467C19.3332 22.4422 19.1234 22.9502 18.7038 23.3707C18.2843 23.7902 17.7763 24 17.1798 24H2.82117ZM2.82117 22.6667H17.1798C17.3843 22.6667 17.5723 22.5813 17.7438 22.4107C17.9154 22.24 18.0007 22.0516 17.9998 21.8453V2.15467C17.9998 1.94933 17.9145 1.76089 17.7438 1.58933C17.5732 1.41778 17.3847 1.33244 17.1785 1.33333H2.82117C2.61584 1.33333 2.42739 1.41867 2.25584 1.58933C2.08428 1.76 1.99895 1.948 1.99984 2.15333V21.8467C1.99984 22.0511 2.08517 22.2391 2.25584 22.4107C2.4265 22.5822 2.6145 22.6676 2.81984 22.6667M9.99984 20.3067C11.5536 20.3067 12.8825 19.7556 13.9865 18.6533C15.0887 17.5493 15.6398 16.2204 15.6398 14.6667C15.6398 13.1129 15.0887 11.784 13.9865 10.68C12.8816 9.57778 11.5527 9.02667 9.99984 9.02667C8.44695 9.02667 7.11806 9.57778 6.01317 10.68C4.91095 11.7849 4.35984 13.1138 4.35984 14.6667C4.35984 16.2196 4.91095 17.5484 6.01317 18.6533C7.11717 19.7556 8.44606 20.3067 9.99984 20.3067ZM9.99984 19.0667C9.42206 19.0667 8.86517 18.9569 8.32917 18.7373C7.79317 18.5178 7.3225 18.2053 6.91717 17.8L13.1332 11.5853C13.5385 11.9898 13.8509 12.46 14.0705 12.996C14.2901 13.532 14.3998 14.0889 14.3998 14.6667C14.3998 15.8889 13.9723 16.928 13.1172 17.784C12.2621 18.64 11.2229 19.0676 9.99984 19.0667ZM4.6665 5.33333C5.04428 5.33333 5.36117 5.20533 5.61717 4.94933C5.87317 4.69333 6.00073 4.37689 5.99984 4C5.99895 3.62311 5.87095 3.30667 5.61584 3.05067C5.36073 2.79467 5.04428 2.66667 4.6665 2.66667C4.28873 2.66667 3.97228 2.79467 3.71717 3.05067C3.46206 3.30667 3.33406 3.62311 3.33317 4C3.33228 4.37689 3.46028 4.69378 3.71717 4.95067C3.97406 5.20756 4.2905 5.33511 4.6665 5.33333ZM8.6665 5.33333C9.04428 5.33333 9.36117 5.20533 9.61717 4.94933C9.87317 4.69333 10.0007 4.37689 9.99984 4C9.99895 3.62311 9.87095 3.30667 9.61584 3.05067C9.36073 2.79467 9.04428 2.66667 8.6665 2.66667C8.28873 2.66667 7.97228 2.79467 7.71717 3.05067C7.46206 3.30667 7.33406 3.62311 7.33317 4C7.33228 4.37689 7.46028 4.69378 7.71717 4.95067C7.97406 5.20756 8.2905 5.33511 8.6665 5.33333Z" fill="black" fill-opacity="0.8"/>
</svg>
