<svg width="32" height="32" viewBox="0 0 32 32" fill="none" xmlns="http://www.w3.org/2000/svg">
<path d="M23.8721 9.90261L25.7641 8.01128C25.9482 8.19559 26.177 8.32898 26.4281 8.39843C26.6791 8.46788 26.944 8.47101 27.1966 8.40751C27.4493 8.34401 27.6811 8.21605 27.8696 8.03614C28.058 7.85623 28.1965 7.63052 28.2716 7.38107C28.3467 7.13161 28.3558 6.86694 28.298 6.61291C28.2402 6.35888 28.1176 6.12419 27.9419 5.93175C27.7663 5.73932 27.5438 5.59574 27.2961 5.51503C27.0484 5.43432 26.784 5.41924 26.5287 5.47128C26.5808 5.21591 26.5658 4.9514 26.485 4.70359C26.4043 4.45579 26.2607 4.23315 26.0682 4.05745C25.8757 3.88175 25.6409 3.75898 25.3868 3.70114C25.1327 3.64331 24.8679 3.65238 24.6183 3.72747C24.3688 3.80256 24.1429 3.94111 23.9629 4.12958C23.7829 4.31804 23.6549 4.54998 23.5913 4.80273C23.5277 5.05548 23.5308 5.3204 23.6002 5.57161C23.6697 5.82281 23.8031 6.05171 23.9874 6.23594L22.0967 8.12794M8.12807 22.0973L6.23607 23.9886C6.05195 23.804 5.82307 23.6703 5.57181 23.6007C5.32056 23.531 5.05552 23.5277 4.80262 23.5912C4.54972 23.6546 4.31762 23.7826 4.129 23.9626C3.94039 24.1427 3.80172 24.3686 3.72656 24.6182C3.65139 24.8679 3.64231 25.1328 3.70019 25.387C3.75807 25.6413 3.88094 25.8761 4.05678 26.0686C4.23262 26.2612 4.45541 26.4047 4.70337 26.4854C4.95133 26.566 5.21596 26.5809 5.4714 26.5286C5.41912 26.784 5.43402 27.0487 5.51464 27.2966C5.59527 27.5446 5.73886 27.7674 5.93138 27.9432C6.1239 28.1191 6.35876 28.2419 6.61299 28.2998C6.86722 28.3577 7.13212 28.3486 7.38179 28.2735C7.63146 28.1983 7.85735 28.0596 8.03737 27.871C8.2174 27.6824 8.34539 27.4503 8.40884 27.1974C8.47229 26.9445 8.46902 26.6795 8.39936 26.4282C8.3297 26.1769 8.19602 25.9481 8.01141 25.7639L9.90341 23.8726C9.67074 23.4759 9.49341 23.0559 9.37741 22.6226C8.93931 22.5042 8.51911 22.3275 8.12807 22.0973Z" stroke="black" stroke-opacity="0.8" stroke-width="1.5" stroke-linecap="round" stroke-linejoin="round"/>
<path d="M8.12815 22.0974C7.77015 21.8874 7.43081 21.6327 7.12415 21.326C6.6577 20.8598 6.28768 20.3063 6.03522 19.6971C5.78277 19.0878 5.65283 18.4348 5.65283 17.7754C5.65283 17.1159 5.78277 16.4629 6.03522 15.8536C6.28768 15.2444 6.6577 14.6909 7.12415 14.2247C7.54741 13.8031 8.0428 13.4608 8.58681 13.214C9.11881 12.97 9.70015 12.9207 10.2561 12.774C11.4548 12.4587 12.4688 11.3994 12.7768 10.196C12.9041 9.69869 12.9555 9.18136 13.1601 8.70269C13.4108 8.11284 13.7724 7.57666 14.2255 7.12336C14.6916 6.65711 15.2451 6.28726 15.8542 6.03492C16.4633 5.78259 17.1162 5.65271 17.7755 5.65271C18.4348 5.65271 19.0876 5.78259 19.6968 6.03492C20.3059 6.28726 20.8593 6.65711 21.3255 7.12336C21.6244 7.42416 21.8838 7.76175 22.0975 8.12803C22.3275 8.5191 22.504 8.9393 22.6221 9.37736C23.0605 9.49567 23.4809 9.67237 23.8721 9.90269C24.2384 10.1162 24.576 10.3754 24.8768 10.674C25.3432 11.1403 25.7131 11.6939 25.9654 12.3032C26.2178 12.9125 26.3476 13.5655 26.3475 14.225C26.3473 14.8844 26.2173 15.5374 25.9647 16.1466C25.7121 16.7558 25.342 17.3093 24.8755 17.7754C24.4223 18.2281 23.8864 18.5895 23.2968 18.84C22.8181 19.0454 22.3008 19.096 21.8035 19.2234C20.6015 19.5314 19.5415 20.5447 19.2261 21.744C19.0795 22.3 19.0301 22.882 18.7861 23.414C18.5393 23.9578 18.197 24.453 17.7755 24.876C17.3093 25.3425 16.7558 25.7125 16.1465 25.9649C15.5373 26.2174 14.8843 26.3473 14.2248 26.3473C13.5653 26.3473 12.9123 26.2174 12.3031 25.9649C11.6939 25.7125 11.1403 25.3425 10.6741 24.876C10.3756 24.5756 10.1164 24.2385 9.90281 23.8727" stroke="black" stroke-opacity="0.8" stroke-width="1.5" stroke-linecap="round" stroke-linejoin="round"/>
</svg>
