<svg width="32" height="32" viewBox="0 0 32 32" fill="none" xmlns="http://www.w3.org/2000/svg">
<path d="M13.3332 0.666626H18.6665M8.6665 13.3333H9.33317L10.7025 13.5613C14.2099 14.145 17.7897 14.145 21.2972 13.5613L22.6665 13.3333H23.3332M8.6665 22.6666H9.33317L10.7025 22.4386C14.2099 21.8549 17.7897 21.8549 21.2972 22.4386L22.6665 22.6666H23.3332M17.9998 4.66663H13.9998C12.3976 5.4684 11.0502 6.70022 10.1083 8.22425C9.16635 9.74827 8.66714 11.5044 8.6665 13.296V28.6666C8.6665 29.3739 8.94746 30.0521 9.44755 30.5522C9.94765 31.0523 10.6259 31.3333 11.3332 31.3333H20.6665C21.3737 31.3333 22.052 31.0523 22.5521 30.5522C23.0522 30.0521 23.3332 29.3739 23.3332 28.6666V13.296C23.3325 11.5044 22.8333 9.74827 21.8914 8.22425C20.9495 6.70022 19.602 5.4684 17.9998 4.66663Z" stroke="black" stroke-width="1.33333"/>
</svg>
