<svg width="26" height="26" viewBox="0 0 26 26" fill="none" xmlns="http://www.w3.org/2000/svg">
<path d="M12.3333 19H15M12.3333 13H15M12.3333 7H15M25 20.2C25 22.4627 25 23.5947 24.1333 24.2973C23.264 25 21.8667 25 19.0747 25H17.592C14.7987 25 13.4027 25 12.5347 24.2973C11.6667 23.5947 11.6667 22.4627 11.6667 20.2V5.8C11.6667 3.53733 11.6667 2.40533 12.5333 1.70267C13.404 1 14.8 1 17.5933 1H19.076C21.8693 1 23.2653 1 24.1333 1.70267C25.0013 2.40533 25 3.53733 25 5.8V20.2ZM1 3.72133C1 2.43867 1 1.79733 1.39067 1.39867C1.78133 1 2.40933 1 3.66667 1C4.924 1 5.552 1 5.94267 1.39867C6.33333 1.79733 6.33333 2.43867 6.33333 3.72V18.1827C6.33333 19.392 6.33333 19.996 6.232 20.5827C6.13967 21.1176 5.98483 21.6398 5.77067 22.1387C5.536 22.6827 5.208 23.1853 4.55067 24.192C4.25733 24.6413 4.11067 24.8653 3.92667 24.9453C3.84441 24.9802 3.75599 24.9981 3.66667 24.9981C3.57734 24.9981 3.48892 24.9802 3.40667 24.9453C3.22267 24.8653 3.076 24.6413 2.78267 24.192C2.12533 23.1853 1.796 22.6827 1.56267 22.1387C1.34851 21.6398 1.19367 21.1176 1.10133 20.5827C1 19.9973 1 19.3933 1 18.184V3.72133Z" stroke="black" stroke-opacity="0.8" stroke-width="2" stroke-linecap="round" stroke-linejoin="round"/>
<path d="M6.33333 6.33337C6.33333 7.06937 5.14 7.66671 3.66667 7.66671C2.19333 7.66671 1 7.06937 1 6.33337" stroke="black" stroke-opacity="0.8" stroke-width="2" stroke-linecap="round" stroke-linejoin="round"/>
</svg>
