<svg width="24" height="22" viewBox="0 0 24 22" fill="none" xmlns="http://www.w3.org/2000/svg">
<path d="M2.66667 13.6667C1.91467 13.6667 1.28222 13.4103 0.769333 12.8974C0.256444 12.3845 0 11.752 0 11C0 10.248 0.256444 9.6156 0.769333 9.10271C1.28222 8.58982 1.91467 8.33337 2.66667 8.33337V5.15471C2.66667 4.56182 2.87778 4.05471 3.3 3.63337C3.72222 3.21204 4.22889 3.00093 4.82 3.00004H9.33333C9.33333 2.24804 9.58978 1.6156 10.1027 1.10271C10.6156 0.589819 11.248 0.333374 12 0.333374C12.752 0.333374 13.3844 0.589819 13.8973 1.10271C14.4102 1.6156 14.6667 2.24804 14.6667 3.00004H19.18C19.772 3.00004 20.2787 3.21115 20.7 3.63337C21.1213 4.0556 21.3324 4.56226 21.3333 5.15337V8.33337C22.0853 8.33337 22.7178 8.58982 23.2307 9.10271C23.7436 9.6156 24 10.248 24 11C24 11.752 23.7436 12.3845 23.2307 12.8974C22.7178 13.4103 22.0853 13.6667 21.3333 13.6667V19.5134C21.3333 20.1054 21.1222 20.612 20.7 21.0334C20.2778 21.4547 19.7711 21.6658 19.18 21.6667H4.82C4.228 21.6667 3.72133 21.4556 3.3 21.0334C2.87867 20.6112 2.66756 20.1049 2.66667 19.5147V13.6667ZM7.99733 11.6667C8.36711 11.6667 8.68222 11.5374 8.94267 11.2787C9.20311 11.02 9.33333 10.7058 9.33333 10.336C9.33333 9.96626 9.204 9.65115 8.94533 9.39071C8.68667 9.13026 8.37244 9.00004 8.00267 9.00004C7.63289 9.00004 7.31778 9.12937 7.05733 9.38804C6.79689 9.64671 6.66667 9.96093 6.66667 10.3307C6.66667 10.7005 6.796 11.0156 7.05467 11.276C7.31333 11.5365 7.62756 11.6667 7.99733 11.6667ZM15.9973 11.6667C16.3671 11.6667 16.6822 11.5374 16.9427 11.2787C17.2031 11.02 17.3333 10.7058 17.3333 10.336C17.3333 9.96626 17.204 9.65115 16.9453 9.39071C16.6867 9.13026 16.3724 9.00004 16.0027 9.00004C15.6329 9.00004 15.3178 9.12937 15.0573 9.38804C14.7969 9.64671 14.6667 9.96093 14.6667 10.3307C14.6667 10.7005 14.796 11.0156 15.0547 11.276C15.3133 11.5365 15.6276 11.6667 15.9973 11.6667ZM7.33333 17H16.6667V15.6667H7.33333V17ZM4.82133 20.3334H19.18C19.4191 20.3334 19.6156 20.2565 19.7693 20.1027C19.9231 19.9489 20 19.7525 20 19.5134V5.15337C20 4.91426 19.9231 4.71782 19.7693 4.56404C19.6156 4.41026 19.4191 4.33337 19.18 4.33337H4.82C4.58089 4.33337 4.38444 4.41026 4.23067 4.56404C4.07689 4.71782 4 4.91471 4 5.15471V19.5134C4 19.7525 4.07689 19.9489 4.23067 20.1027C4.38444 20.2565 4.58133 20.3334 4.82133 20.3334Z" fill="black"/>
</svg>
