<svg width="28" height="27" viewBox="0 0 28 27" fill="none" xmlns="http://www.w3.org/2000/svg">
<path d="M25.946 11.4062C26.0185 11.2102 26.0185 10.9947 25.946 10.7987C25.8911 10.6554 25.7999 10.5287 25.6816 10.4311C25.7912 10.3112 25.8656 10.1634 25.8967 10.0039C25.9279 9.84442 25.9145 9.67946 25.858 9.52711C25.7931 9.35357 25.6754 9.20478 25.5214 9.10175C25.3674 8.99872 25.1849 8.94665 24.9998 8.95289C25.0876 8.74493 25.093 8.51135 25.0149 8.29956C24.9346 8.08687 24.7759 7.91302 24.5713 7.81378C24.6232 7.70614 24.6529 7.58915 24.6585 7.46979C24.6642 7.35044 24.6457 7.23117 24.6042 7.11911C24.5344 6.93314 24.4042 6.77593 24.2346 6.67257C24.0649 6.56922 23.8655 6.52567 23.6682 6.54889C23.7374 6.35738 23.7369 6.14764 23.6669 5.95644C23.5845 5.73565 23.4178 5.5566 23.2034 5.45867C22.9891 5.36075 22.7446 5.35195 22.5238 5.43422C22.4816 5.44978 22.4442 5.47111 22.406 5.492C22.4367 5.33343 22.4237 5.16948 22.3682 5.01778C22.3234 4.89943 22.2538 4.79202 22.1641 4.70272C22.0745 4.61343 21.9668 4.54432 21.8482 4.5C21.966 4.28222 21.9958 4.01867 21.9024 3.76844C21.8201 3.54757 21.6535 3.36842 21.4391 3.2704C21.2247 3.17239 20.9802 3.16353 20.7593 3.24578C20.6084 3.30316 20.476 3.40058 20.3762 3.52756C20.3673 3.48578 20.3584 3.44311 20.3429 3.40089C20.2779 3.22882 20.1612 3.08114 20.0087 2.97821C19.8563 2.87528 19.6757 2.82218 19.4918 2.82622C19.5297 2.66943 19.5242 2.50528 19.4759 2.35137C19.4276 2.19746 19.3383 2.05959 19.2177 1.95253C19.097 1.84548 18.9495 1.77328 18.7909 1.74367C18.6324 1.71406 18.4687 1.72815 18.3176 1.78444C18.1664 1.84188 18.0338 1.93946 17.934 2.06667C17.926 2.02368 17.9149 1.98134 17.9007 1.94C17.8297 1.75014 17.696 1.59022 17.5218 1.48675C17.3475 1.38329 17.1431 1.34248 16.9424 1.37111C16.8604 1.25664 16.7523 1.1633 16.6272 1.09878C16.502 1.03425 16.3633 1.0004 16.2224 1C15.8344 1 15.5082 1.25022 15.3869 1.59689C15.2399 1.49754 15.0665 1.44444 14.8891 1.44444C14.8491 1.44444 14.8104 1.45111 14.7722 1.456C14.6198 1.18533 14.3336 1 14.0002 1C13.6669 1 13.3807 1.18533 13.2282 1.456C13.19 1.45156 13.1513 1.44444 13.1113 1.44444C12.9269 1.44444 12.7558 1.50089 12.6136 1.59689C12.5537 1.42282 12.441 1.27176 12.2913 1.16477C12.1415 1.05777 11.9621 1.00017 11.778 1C11.4807 1 11.2193 1.14756 11.058 1.37111C10.8573 1.34248 10.6529 1.38329 10.4787 1.48675C10.3044 1.59022 10.1707 1.75014 10.0998 1.94C10.0838 1.98178 10.0753 2.02444 10.0664 2.06667C9.96658 1.93962 9.83397 1.8422 9.68288 1.78489C9.53176 1.72864 9.36818 1.71455 9.20966 1.74415C9.05115 1.77375 8.90367 1.8459 8.78302 1.9529C8.66238 2.05989 8.57311 2.19768 8.52478 2.35153C8.47645 2.50537 8.47088 2.66946 8.50866 2.82622C8.32477 2.82218 8.14416 2.87528 7.99172 2.97821C7.83928 3.08114 7.72253 3.22882 7.65755 3.40089C7.64199 3.44311 7.63355 3.48533 7.62422 3.52756C7.52448 3.40058 7.39203 3.30316 7.24111 3.24578C7.02027 3.16351 6.77579 3.1723 6.56143 3.27023C6.34708 3.36816 6.18038 3.5472 6.09799 3.768C6.05439 3.88684 6.03667 4.01362 6.04602 4.13986C6.05537 4.2661 6.09158 4.38888 6.15222 4.5C6.03368 4.54432 5.92597 4.61343 5.83629 4.70272C5.74662 4.79202 5.67704 4.89943 5.63222 5.01778C5.57355 5.17556 5.56555 5.33778 5.59444 5.492C5.55622 5.47111 5.51888 5.44978 5.47666 5.43422C5.25582 5.35195 5.01135 5.36075 4.79699 5.45867C4.58263 5.5566 4.41594 5.73565 4.33355 5.95644C4.26353 6.14764 4.26305 6.35738 4.33222 6.54889C4.13492 6.52567 3.93553 6.56922 3.76587 6.67257C3.59622 6.77593 3.46608 6.93314 3.39622 7.11911C3.35473 7.23117 3.33625 7.35044 3.34191 7.46979C3.34756 7.58915 3.37721 7.70614 3.42911 7.81378C3.22449 7.91313 3.06575 8.08714 2.98555 8.3C2.90745 8.5118 2.91285 8.74538 3.00066 8.95333C2.81562 8.94716 2.6333 8.99921 2.47941 9.10215C2.32552 9.20509 2.20781 9.35372 2.14288 9.52711C2.08636 9.67942 2.07289 9.84436 2.10393 10.0038C2.13498 10.1633 2.20935 10.3111 2.31888 10.4311C2.20032 10.5287 2.10906 10.6553 2.05399 10.7987C1.97844 11.0031 1.98599 11.2156 2.05444 11.4062M26.8891 13C26.8891 20.1182 21.1189 25.8889 14.0002 25.8889C6.88155 25.8889 1.11133 20.1182 1.11133 13H26.8891Z" stroke="black" stroke-opacity="0.8" stroke-width="0.888889" stroke-miterlimit="10" stroke-linecap="round" stroke-linejoin="round"/>
</svg>
